<svg width="48" height="49" viewBox="0 0 48 49" fill="none" xmlns="http://www.w3.org/2000/svg">
<rect y="0.5" width="48" height="48" rx="8" fill="white" fill-opacity="0.2"/>
<path d="M33.6732 31.0534C33.0303 30.4802 32.4675 29.8232 31.9999 29.1C31.4894 28.1017 31.1834 27.0115 31.0999 25.8934V22.6C31.1043 20.8438 30.4672 19.1463 29.3084 17.8267C28.1495 16.507 26.5486 15.6559 24.8065 15.4333V14.5733C24.8065 14.3373 24.7128 14.1109 24.5459 13.944C24.379 13.7771 24.1526 13.6833 23.9165 13.6833C23.6805 13.6833 23.4541 13.7771 23.2872 13.944C23.1203 14.1109 23.0265 14.3373 23.0265 14.5733V15.4467C21.3 15.6853 19.7185 16.5415 18.5749 17.8568C17.4313 19.172 16.803 20.8571 16.8065 22.6V25.8934C16.723 27.0115 16.4171 28.1017 15.9065 29.1C15.4471 29.8216 14.8933 30.4785 14.2599 31.0534C14.1888 31.1158 14.1318 31.1927 14.0927 31.2789C14.0536 31.3651 14.0333 31.4587 14.0332 31.5534V32.46C14.0332 32.6368 14.1034 32.8064 14.2285 32.9314C14.3535 33.0564 14.5231 33.1267 14.6999 33.1267H33.2332C33.41 33.1267 33.5796 33.0564 33.7046 32.9314C33.8296 32.8064 33.8999 32.6368 33.8999 32.46V31.5534C33.8997 31.4587 33.8795 31.3651 33.8404 31.2789C33.8013 31.1927 33.7443 31.1158 33.6732 31.0534ZM15.4199 31.7934C16.0401 31.1942 16.5863 30.5227 17.0465 29.7934C17.6896 28.5877 18.0648 27.2574 18.1465 25.8934V22.6C18.1201 21.8187 18.2512 21.0401 18.5319 20.3105C18.8126 19.5809 19.2373 18.9152 19.7807 18.3532C20.3241 17.7911 20.975 17.3441 21.6947 17.0389C22.4144 16.7336 23.1881 16.5763 23.9699 16.5763C24.7516 16.5763 25.5254 16.7336 26.2451 17.0389C26.9648 17.3441 27.6157 17.7911 28.159 18.3532C28.7024 18.9152 29.1271 19.5809 29.4078 20.3105C29.6886 21.0401 29.8196 21.8187 29.7932 22.6V25.8934C29.8749 27.2574 30.2501 28.5877 30.8932 29.7934C31.3535 30.5227 31.8996 31.1942 32.5199 31.7934H15.4199Z" fill="white"/>
<path d="M23.9996 35.3533C24.4195 35.3436 24.8225 35.1857 25.1373 34.9075C25.4521 34.6294 25.6583 34.2488 25.7196 33.8333H22.2129C22.2759 34.2601 22.4918 34.6496 22.8204 34.9292C23.1491 35.2088 23.5681 35.3595 23.9996 35.3533Z" fill="white"/>
<path d="M38.3333 13.1667C40.1743 13.1667 41.6667 11.6743 41.6667 9.83333C41.6667 7.99238 40.1743 6.5 38.3333 6.5C36.4924 6.5 35 7.99238 35 9.83333C35 11.6743 36.4924 13.1667 38.3333 13.1667Z" fill="#FF5F13"/>
</svg>
