<svg width="20" height="20" viewBox="0 0 20 20" fill="none" xmlns="http://www.w3.org/2000/svg">
<g id="ep:van">
<path id="Vector" d="M2.5175 14.375H1.875C1.70924 14.375 1.55027 14.3092 1.43306 14.1919C1.31585 14.0747 1.25 13.9158 1.25 13.75V4.375C1.25 4.20924 1.31585 4.05027 1.43306 3.93306C1.55027 3.81585 1.70924 3.75 1.875 3.75H13.125C13.2908 3.75 13.4497 3.81585 13.5669 3.93306C13.6842 4.05027 13.75 4.20924 13.75 4.375V6.25H16.9637C17.113 6.25006 17.2573 6.30353 17.3706 6.40074C17.4838 6.49795 17.5586 6.63248 17.5812 6.78L18.6388 13.655C18.6524 13.744 18.6467 13.835 18.622 13.9216C18.5973 14.0082 18.5541 14.0885 18.4954 14.1569C18.4368 14.2253 18.364 14.2802 18.2822 14.3178C18.2004 14.3555 18.1113 14.375 18.0212 14.375H16.2338C16.277 14.7679 16.2369 15.1656 16.1161 15.5419C15.9954 15.9183 15.7966 16.265 15.5328 16.5595C15.269 16.8539 14.9461 17.0894 14.5852 17.2506C14.2243 17.4118 13.8334 17.4951 13.4381 17.4951C13.0428 17.4951 12.652 17.4118 12.291 17.2506C11.9301 17.0894 11.6072 16.8539 11.3434 16.5595C11.0797 16.265 10.8809 15.9183 10.7601 15.5419C10.6393 15.1656 10.5993 14.7679 10.6425 14.375H8.1075C8.15074 14.7679 8.11066 15.1656 7.98988 15.5419C7.86911 15.9183 7.67034 16.265 7.40656 16.5595C7.14277 16.8539 6.81988 17.0894 6.45896 17.2506C6.09803 17.4118 5.70717 17.4951 5.31187 17.4951C4.91658 17.4951 4.52572 17.4118 4.16479 17.2506C3.80387 17.0894 3.48098 16.8539 3.2172 16.5595C2.95341 16.265 2.75464 15.9183 2.63387 15.5419C2.51309 15.1656 2.47301 14.7679 2.51625 14.375H2.5175ZM2.97375 13.125C3.2303 12.7398 3.57803 12.4239 3.98603 12.2055C4.39404 11.987 4.84969 11.8727 5.3125 11.8727C5.77531 11.8727 6.23096 11.987 6.63897 12.2055C7.04697 12.4239 7.3947 12.7398 7.65125 13.125H11.1C11.4338 12.625 11.925 12.2387 12.5013 12.035V5H2.5V13.125H2.97375ZM15.7763 13.125H17.2925L16.9088 10.625H13.75V11.8925C14.1571 11.938 14.5494 12.0718 14.8994 12.2847C15.2494 12.4976 15.5486 12.7844 15.7763 13.125ZM16.7163 9.375L16.4287 7.5H13.75V9.375H16.7163ZM13.4375 16.25C13.8519 16.25 14.2493 16.0854 14.5424 15.7924C14.8354 15.4993 15 15.1019 15 14.6875C15 14.2731 14.8354 13.8757 14.5424 13.5826C14.2493 13.2896 13.8519 13.125 13.4375 13.125C13.0231 13.125 12.6257 13.2896 12.3326 13.5826C12.0396 13.8757 11.875 14.2731 11.875 14.6875C11.875 15.1019 12.0396 15.4993 12.3326 15.7924C12.6257 16.0854 13.0231 16.25 13.4375 16.25ZM5.3125 16.25C5.7269 16.25 6.12433 16.0854 6.41735 15.7924C6.71038 15.4993 6.875 15.1019 6.875 14.6875C6.875 14.2731 6.71038 13.8757 6.41735 13.5826C6.12433 13.2896 5.7269 13.125 5.3125 13.125C4.8981 13.125 4.50067 13.2896 4.20765 13.5826C3.91462 13.8757 3.75 14.2731 3.75 14.6875C3.75 15.1019 3.91462 15.4993 4.20765 15.7924C4.50067 16.0854 4.8981 16.25 5.3125 16.25Z" fill="#E4E4E4"/>
</g>
</svg>
