<svg width="24" height="25" viewBox="0 0 24 25" fill="none" xmlns="http://www.w3.org/2000/svg">
<g id="el:upload" clip-path="url(#clip0_0_1859)">
<path id="Vector" d="M12 24.5C5.3726 24.5 0 19.1274 0 12.5C0 5.8726 5.3726 0.5 12 0.5C18.6274 0.5 24 5.8726 24 12.5C24 19.1274 18.6274 24.5 12 24.5ZM12 3.1087C6.81262 3.1087 2.6087 7.31392 2.6087 12.5C2.6087 17.6861 6.81262 21.8913 12 21.8913C17.1874 21.8913 21.3913 17.6861 21.3913 12.5C21.3913 7.31392 17.1874 3.1087 12 3.1087ZM14.3478 17.5217H9.65216V12.187H6.7174L12 7.2174L17.2826 12.187H14.3478V17.5217Z" fill="white" fill-opacity="0.8"/>
</g>
<defs>
<clipPath id="clip0_0_1859">
<rect width="24" height="24" fill="white" transform="translate(0 0.5)"/>
</clipPath>
</defs>
</svg>
