<svg width="17" height="17" viewBox="0 0 17 17" fill="none" xmlns="http://www.w3.org/2000/svg">
<g id="ion:time">
<path id="Vector" d="M8.5 1.59375C4.68596 1.59375 1.59375 4.68596 1.59375 8.5C1.59375 12.314 4.68596 15.4062 8.5 15.4062C12.314 15.4062 15.4062 12.314 15.4062 8.5C15.4062 4.68596 12.314 1.59375 8.5 1.59375ZM11.6875 9.5625H8.5C8.3591 9.5625 8.22398 9.50653 8.12435 9.4069C8.02472 9.30727 7.96875 9.17215 7.96875 9.03125V4.25C7.96875 4.1091 8.02472 3.97398 8.12435 3.87435C8.22398 3.77472 8.3591 3.71875 8.5 3.71875C8.6409 3.71875 8.77602 3.77472 8.87565 3.87435C8.97528 3.97398 9.03125 4.1091 9.03125 4.25V8.5H11.6875C11.8284 8.5 11.9635 8.55597 12.0632 8.6556C12.1628 8.75523 12.2188 8.89035 12.2188 9.03125C12.2188 9.17215 12.1628 9.30727 12.0632 9.4069C11.9635 9.50653 11.8284 9.5625 11.6875 9.5625Z" fill="#E4E4E4"/>
</g>
</svg>
