<svg width="16" height="16" viewBox="0 0 16 16" fill="none" xmlns="http://www.w3.org/2000/svg">
<g id="material-symbols:download">
<path id="Vector" d="M7.83329 8.10001V3.16667H8.16663V8.10001V9.30711L9.02018 8.45356L10.3937 7.08004L10.6323 7.32719L7.99996 9.95957L5.36759 7.32719L5.60622 7.08004L6.97974 8.45356L7.83329 9.30711V8.10001ZM3.16663 12.0006V12V10.5H3.49996V12V12.5H3.99996H12H12.5V12V10.5H12.8333V12C12.8333 12.2329 12.7561 12.42 12.5877 12.5885C12.4194 12.7568 12.2326 12.8336 12.0006 12.8333H12H3.99996C3.76708 12.8333 3.57992 12.7562 3.41151 12.5878C3.24313 12.4194 3.16635 12.2327 3.16663 12.0006Z" fill="#444444" stroke="#FF5F13"/>
</g>
</svg>
