<svg width="20" height="20" viewBox="0 0 20 20" fill="none" xmlns="http://www.w3.org/2000/svg">
<g id="Frame 55114">
<path id="Edit" fill-rule="evenodd" clip-rule="evenodd" d="M9.18537 16.514L16.3306 7.27388C16.7189 6.7756 16.857 6.19951 16.7275 5.61294C16.6154 5.07968 16.2874 4.57266 15.7956 4.18802L14.5961 3.23516C13.5519 2.40469 12.2575 2.4921 11.5153 3.44496L10.7128 4.48611C10.6092 4.61637 10.6351 4.80869 10.7646 4.91359C10.7646 4.91359 12.7925 6.53957 12.8356 6.57454C12.9737 6.70566 13.0773 6.8805 13.1032 7.0903C13.1463 7.50117 12.8615 7.88581 12.4387 7.93826C12.2402 7.96449 12.0504 7.90329 11.9123 7.78965L9.78081 6.09374C9.67725 6.01593 9.52192 6.03254 9.43563 6.13745L4.37012 12.6938C4.0422 13.1047 3.93002 13.6379 4.0422 14.1537L4.68942 16.9598C4.72393 17.1084 4.85338 17.2133 5.00871 17.2133L7.85643 17.1784C8.3742 17.1696 8.85745 16.9336 9.18537 16.514ZM9.53952 16.9157H12.8498C13.1728 16.9157 13.4355 17.1818 13.4355 17.509C13.4355 17.8368 13.1728 18.1023 12.8498 18.1023H9.53952C9.21654 18.1023 8.95386 17.8368 8.95386 17.509C8.95386 17.1818 9.21654 16.9157 9.53952 16.9157Z" fill="#5D5FEF"/>
</g>
</svg>
